<svg width="636" height="473" viewBox="0 0 636 473" fill="none" xmlns="http://www.w3.org/2000/svg">
<path d="M616.2 74.3236H18.96C8.532 74.3236 0 65.7916 0 55.3636V38.6788C0 28.2508 8.532 19.7188 18.96 19.7188H616.2C626.628 19.7188 635.16 28.2508 635.16 38.6788V55.3636C635.16 65.7916 626.628 74.3236 616.2 74.3236Z" fill="#FFC740"/>
<path d="M616.2 82.8548H18.96C8.532 82.8548 0 74.3228 0 63.8948V47.21C0 36.782 8.532 28.25 18.96 28.25H616.2C626.628 28.25 635.16 36.782 635.16 47.21V63.8948C635.16 74.3228 626.628 82.8548 616.2 82.8548Z" fill="#FAAF40"/>
<path d="M608.616 62.9467H26.5438C22.5622 62.9467 19.339 59.7235 19.339 55.7419C19.339 51.7603 22.5622 48.5371 26.5438 48.5371H608.616C612.597 48.5371 615.82 51.7603 615.82 55.7419C615.82 59.7235 612.597 62.9467 608.616 62.9467Z" fill="#480081"/>
<path d="M67.3078 0C50.2438 0 44.5558 20.856 44.5558 34.128C44.5558 47.4 37.5406 56.3112 32.611 56.3112H160.212V0H67.3078Z" fill="#E6E7E8"/>
<path d="M567.852 0C584.916 0 590.604 20.856 590.604 34.128C590.604 47.4 597.619 56.3112 602.549 56.3112H474.948V0H567.852Z" fill="#E6E7E8"/>
<path d="M45.6936 23.5105C57.4488 19.9081 85.32 13.8409 105.797 29.9569C122.292 42.8497 119.448 19.7185 115.087 0.189728H67.308C54.4152 0.000127867 47.9688 11.9449 45.6936 23.5105Z" fill="#CFD0D2"/>
<path d="M590.224 23.5105C578.469 19.9081 550.598 13.8409 530.121 29.9569C513.626 42.8497 516.47 19.7185 520.831 0.189728H568.61C581.313 0.000127867 587.759 11.9449 590.224 23.5105Z" fill="#CFD0D2"/>
<path d="M317.826 0H94.8018H66C68.2738 0 94.8018 1.27188 94.8018 50.8753V472.999C94.8018 472.999 99.16 473.14 100.107 470.596C101.244 468.052 104.466 466.922 107.118 466.922C109.771 466.922 112.992 468.052 114.129 470.596C115.266 473.14 119.435 472.999 119.435 472.999C119.435 472.999 123.793 473.14 124.741 470.596C125.877 468.052 129.099 466.922 131.752 466.922C134.404 466.922 137.626 468.052 138.762 470.596C139.899 473.14 144.068 472.999 144.068 472.999C144.068 472.999 148.426 473.14 149.374 470.596C150.511 468.052 153.732 466.922 156.385 466.922C159.037 466.922 162.259 468.052 163.396 470.596C164.533 473.14 168.701 472.999 168.701 472.999C168.701 472.999 173.059 473.14 174.007 470.596C175.144 468.052 178.365 466.922 181.018 466.922C183.671 466.922 186.892 468.052 188.029 470.596C189.166 473.14 193.334 472.999 193.334 472.999C193.334 472.999 197.693 473.14 198.64 470.596C199.777 468.052 202.998 466.922 205.651 466.922C208.304 466.922 211.525 468.052 212.662 470.596C213.799 473.14 217.967 472.999 217.967 472.999C217.967 472.999 222.326 473.14 223.273 470.596C224.41 468.052 227.631 466.922 230.284 466.922C232.937 466.922 236.158 468.052 237.295 470.596C238.432 473.14 242.601 472.999 242.601 472.999C242.601 472.999 246.959 473.14 247.906 470.596C249.043 468.052 252.264 466.922 254.917 466.922C257.57 466.922 260.791 468.052 261.928 470.596C263.065 473.14 267.234 472.999 267.234 472.999C267.234 472.999 271.592 473.14 272.539 470.596C273.676 468.052 276.898 466.922 279.55 466.922C282.203 466.922 285.424 468.052 286.561 470.596C287.698 473.14 291.867 472.999 291.867 472.999C291.867 472.999 296.225 473.14 297.172 470.596C298.309 468.052 301.531 466.922 304.183 466.922C306.836 466.922 310.057 468.052 311.194 470.596C312.331 473.14 316.5 472.999 316.5 472.999C316.5 472.999 320.858 473.14 321.806 470.596C322.943 468.052 326.164 466.922 328.817 466.922C331.469 466.922 334.691 468.052 335.828 470.596C336.964 473.14 341.133 472.999 341.133 472.999C341.133 472.999 345.491 473.14 346.439 470.596C347.576 468.052 350.797 466.922 353.45 466.922C356.102 466.922 359.324 468.052 360.461 470.596C361.598 473.14 365.766 472.999 365.766 472.999C365.766 472.999 370.124 473.14 371.072 470.596C372.209 468.052 375.43 466.922 378.083 466.922C380.736 466.922 383.957 468.052 385.094 470.596C386.231 473.14 390.399 472.999 390.399 472.999C390.399 472.999 394.758 473.14 395.705 470.596C396.842 468.052 400.063 466.922 402.716 466.922C405.369 466.922 408.59 468.052 409.727 470.596C410.864 473.14 415.033 472.999 415.033 472.999C415.033 472.999 419.391 473.14 420.338 470.596C421.286 468.052 424.696 466.922 427.349 466.922C430.002 466.922 433.223 468.052 434.36 470.596C435.497 473.14 439.666 472.999 439.666 472.999C439.666 472.999 444.024 473.14 444.971 470.596C446.108 468.052 449.329 466.922 451.982 466.922C454.635 466.922 457.856 468.052 458.993 470.596C460.13 473.14 464.299 472.999 464.299 472.999C464.299 472.999 468.657 473.14 469.604 470.596C470.741 468.052 473.963 466.922 476.615 466.922C479.268 466.922 482.489 468.052 483.626 470.596C484.763 473.14 488.932 472.999 488.932 472.999C488.932 472.999 493.29 473.14 494.238 470.596C495.185 468.052 498.596 466.922 501.248 466.922C503.901 466.922 507.123 468.052 508.259 470.596C509.396 473.14 513.565 472.999 513.565 472.999C513.565 472.999 517.923 473.14 518.871 470.596C520.008 468.052 523.229 466.922 525.882 466.922C528.534 466.922 531.756 468.052 532.893 470.596C534.03 473.14 538.198 472.999 538.198 472.999V50.8753C538.198 1.27188 564.916 0 567 0H538.198H317.826Z" fill="white"/>
<path d="M522.871 249.279C541.087 247.536 557.244 253.872 565.006 270.979C572.45 287.295 572.292 306.303 572.292 323.885C572.292 327.687 566.431 327.687 566.273 323.885C566.273 308.52 566.431 292.363 561.204 277.632C555.027 260.05 540.771 253.397 522.713 255.139C519.07 255.615 519.07 249.595 522.871 249.279Z" fill="white"/>
<path d="M555.819 329.271C559.462 327.687 563.105 327.053 565.639 323.727C567.223 321.668 569.916 324.519 568.491 326.578C565.798 330.063 561.838 331.013 557.878 332.756C555.502 333.706 553.601 330.221 555.819 329.271Z" fill="white"/>
<path d="M569.441 325.469C570.233 331.488 569.283 337.666 570.075 343.685C570.392 346.22 566.59 347.328 566.273 344.794C565.323 338.3 566.432 331.964 565.481 325.469C565.164 322.935 569.125 322.935 569.441 325.469Z" fill="white"/>
<path d="M571.976 325.468C575.302 330.062 576.569 335.606 579.42 340.516C580.688 342.734 577.361 344.635 575.936 342.575C572.926 337.823 571.817 332.121 568.491 327.527C566.907 325.468 570.392 323.409 571.976 325.468Z" fill="white"/>
<path d="M572.292 323.409C576.569 326.894 580.371 331.171 585.281 333.705C587.499 334.972 585.598 338.299 583.222 337.19C577.995 334.497 573.876 330.062 569.441 326.26C567.54 324.518 570.392 321.667 572.292 323.409Z" fill="white"/>
<path d="M109.362 250.089C91.4629 251.832 77.0485 245.179 70.8709 227.596C65.6437 212.865 65.8021 196.708 65.8021 181.344C65.8021 177.542 59.7829 177.542 59.7829 181.344C59.7829 198.926 59.6245 217.934 67.0693 234.249C74.9893 251.356 91.1461 257.692 109.204 255.95C113.164 255.633 113.164 249.614 109.362 250.089Z" fill="white"/>
<path d="M74.3555 172.633C70.3955 174.375 66.4354 175.167 63.7426 178.81C62.1586 180.869 65.0099 183.562 66.5939 181.662C69.1283 178.494 72.9299 177.702 76.4147 176.118C78.7907 175.009 76.7315 171.524 74.3555 172.633Z" fill="white"/>
<path d="M66.7522 179.759C65.9602 173.265 66.9106 166.929 65.9602 160.435C65.6435 157.9 61.8419 159.009 62.1587 161.543C62.9507 167.563 62.0003 173.74 62.7923 179.759C63.1091 182.294 67.069 182.294 66.7522 179.759Z" fill="white"/>
<path d="M63.743 177.701C60.4166 173.108 59.1494 167.564 56.2982 162.653C55.031 160.436 51.5462 162.495 52.8134 164.712C55.823 169.464 56.9318 175.167 60.2582 179.76C61.8422 181.82 65.327 179.76 63.743 177.701Z" fill="white"/>
<path d="M62.7924 179.126C58.3572 175.325 54.2388 171.048 49.0116 168.197C46.794 167.088 44.7348 170.414 46.9524 171.681C51.8628 174.216 55.6644 178.334 59.9412 181.977C62.0004 183.561 64.6932 180.71 62.7924 179.126Z" fill="white"/>
<path d="M279.906 182.744C294.004 182.744 294.004 160.885 279.906 160.885C265.967 161.043 265.967 182.744 279.906 182.744Z" fill="#4D4D4D"/>
<path d="M282.916 171.655C286.401 171.655 286.401 166.27 282.916 166.27C279.273 166.27 279.273 171.655 282.916 171.655Z" fill="white"/>
<path d="M351.186 182.744C365.284 182.744 365.284 160.885 351.186 160.885C337.089 161.043 337.089 182.744 351.186 182.744Z" fill="#4D4D4D"/>
<path d="M354.038 171.655C357.522 171.655 357.522 166.27 354.038 166.27C350.553 166.27 350.553 171.655 354.038 171.655Z" fill="white"/>
<path d="M250.919 214.424C270.244 214.424 270.244 184.328 250.919 184.328C231.436 184.328 231.436 214.424 250.919 214.424Z" fill="#FFB8D4"/>
<path d="M383.183 214.424C402.508 214.424 402.508 184.328 383.183 184.328C363.859 184.328 363.859 214.424 383.183 214.424Z" fill="#FFB8D4"/>
<path d="M296.222 198.197C296.222 207.859 305.568 215.621 317.131 215.621C328.694 215.621 338.04 207.859 338.04 198.197" stroke="#4D4D4D" stroke-width="2.5965" stroke-miterlimit="10" stroke-linecap="round" stroke-linejoin="round"/>
</svg>
