<svg width="179" height="148" viewBox="0 0 179 148" fill="none" xmlns="http://www.w3.org/2000/svg">
<path d="M151.393 145.179C144.764 141.127 136.846 133.209 134.084 127.869C167.598 113.137 187.486 84.9628 172.754 44.8189C156.734 -3.42741 86.0216 -5.63719 49.3765 8.54207C-0.71125 27.8774 -17.2844 84.4103 24.8851 121.792C48.6399 142.785 87.3106 147.757 109.04 135.419C113.091 133.209 128.191 149.23 151.393 145.179Z" fill="white"/>
<path d="M151.946 144.258C146.974 140.944 142.37 137.077 138.503 132.473C135.189 128.422 136.109 128.422 140.345 126.212C142.923 124.923 145.317 123.45 147.895 121.977C155.261 117.373 161.89 111.665 167.23 104.851C178.463 90.3037 181.225 71.889 176.806 54.211C168.151 18.3025 136.846 2.28179 101.858 0.256186C68.1594 -1.76942 30.2253 7.99033 10.5216 37.6379C-10.6552 69.311 1.86678 109.271 32.6192 129.527C50.6655 141.312 74.7887 146.837 95.9655 141.865C100.201 140.944 106.462 136.524 110.697 136.893C114.012 137.077 118.431 140.576 121.378 141.865C131.137 146.284 140.897 148.126 151.578 146.652C153.051 146.468 152.498 144.258 151.025 144.443C140.161 145.916 130.585 143.706 120.825 139.102C117.511 137.445 113.459 134.499 109.592 134.499C107.567 134.499 104.62 136.893 102.963 137.445C99.4642 138.918 95.7813 139.839 92.0984 140.391C82.5228 142.049 72.3948 141.496 63.0033 139.471C26.3582 131.737 -6.23565 97.3012 3.89239 58.0781C12.5473 24.5635 45.6936 7.06962 77.735 3.38669C106.278 0.0720627 141.45 4.30742 161.337 27.3257C174.412 42.4257 179.936 66.5488 174.412 85.7C168.703 105.772 151.762 118.846 133.531 127.133C132.979 127.317 132.795 128.238 133.163 128.79C137.398 136.156 143.843 142.049 150.841 146.652C152.13 147.021 153.235 144.995 151.946 144.258Z" fill="#4D4D4D"/>
</svg>
