<svg width="206" height="204" viewBox="0 0 206 204" fill="none" xmlns="http://www.w3.org/2000/svg">
  <g filter="url(#filter0_d)">
  <path d="M131.875 126.31C127.799 126.31 124.484 123.44 124.484 119.913C124.484 116.385 127.799 113.515 131.875 113.515C135.95 113.515 139.265 116.385 139.265 119.913C139.265 121.768 140.769 123.272 142.624 123.272C144.48 123.272 145.984 121.768 145.984 119.913C145.984 113.756 141.397 108.579 135.234 107.174V105.427C135.234 103.572 133.73 102.067 131.875 102.067C130.019 102.067 128.515 103.572 128.515 105.427V107.174C122.352 108.579 117.765 113.756 117.765 119.913C117.765 127.145 124.095 133.029 131.875 133.029C135.95 133.029 139.265 135.899 139.265 139.427C139.265 142.954 135.95 145.824 131.875 145.824C127.799 145.824 124.484 142.954 124.484 139.427C124.484 137.571 122.98 136.067 121.125 136.067C119.269 136.067 117.765 137.571 117.765 139.427C117.765 145.583 122.352 150.76 128.515 152.165V153.616C128.515 155.471 130.019 156.976 131.875 156.976C133.73 156.976 135.234 155.471 135.234 153.616V152.165C141.397 150.76 145.984 145.583 145.984 139.427C145.984 132.194 139.654 126.31 131.875 126.31Z" fill="url(#paint0_linear)"/>
  <path d="M168.67 106.326C164.281 99.4873 158.099 94.0151 150.79 90.5015C149.118 89.6972 147.111 90.4014 146.307 92.0738C145.503 93.7463 146.207 95.7534 147.879 96.5573C160.615 102.68 168.844 115.762 168.844 129.886C168.844 135.929 167.354 141.922 164.537 147.219C163.665 148.856 164.286 150.891 165.924 151.763C166.427 152.03 166.967 152.157 167.499 152.157C168.701 152.157 169.864 151.51 170.468 150.375C173.801 144.111 175.562 137.026 175.562 129.886C175.562 121.5 173.179 113.353 168.67 106.326Z" fill="url(#paint1_linear)"/>
  <path d="M137.156 86.21L136.93 86.2097C135.075 86.2097 133.57 87.7137 133.57 89.5691C133.57 91.4245 135.075 92.9284 136.93 92.9284L137.124 92.9288C137.13 92.9288 137.135 92.9288 137.14 92.9288C138.988 92.9288 140.491 91.4352 140.499 89.5852C140.508 87.7298 139.011 86.2188 137.156 86.21Z" fill="url(#paint2_linear)"/>
  <path d="M115.903 163.214C103.168 157.091 94.9388 144.009 94.9388 129.885C94.9388 123.842 96.4283 117.849 99.2458 112.553C100.117 110.915 99.4961 108.88 97.8581 108.009C96.2207 107.137 94.1856 107.758 93.3145 109.396C89.9817 115.661 88.22 122.746 88.22 129.885C88.22 138.271 90.6035 146.418 95.1128 153.445C99.5011 160.284 105.684 165.756 112.992 169.27C113.461 169.496 113.957 169.602 114.445 169.602C115.696 169.602 116.897 168.9 117.475 167.698C118.279 166.025 117.575 164.018 115.903 163.214Z" fill="url(#paint3_linear)"/>
  <path d="M126.852 166.842L126.658 166.841C124.794 166.838 123.292 168.329 123.283 170.185C123.275 172.04 124.772 173.551 126.627 173.56L126.852 173.561C128.707 173.561 130.212 172.056 130.212 170.201C130.212 168.346 128.707 166.842 126.852 166.842Z" fill="url(#paint4_linear)"/>
  <path d="M147.145 74.8429C146.736 73.8686 146.235 72.9504 145.652 72.0987H154.398C162.919 72.0987 169.851 65.1657 169.851 56.6442C169.851 48.1227 162.919 41.1897 154.398 41.1897H127.496C129.207 38.7028 130.211 35.6943 130.211 32.4545C130.211 23.933 123.278 17 114.758 17H32.4531C23.9324 17 17 23.933 17 32.4545C17 40.976 23.9324 47.909 32.4531 47.909H59.3549C57.6447 50.3959 56.6406 53.4045 56.6406 56.6442C56.6406 59.8839 57.6443 62.8925 59.3549 65.3794H50.5937C42.073 65.3794 35.1406 72.3124 35.1406 80.8339C35.1406 85.7279 37.4297 90.0952 40.9909 92.9287C37.4297 95.7623 35.1406 100.13 35.1406 105.024C35.1406 109.918 37.4297 114.285 40.9909 117.118C37.4297 119.952 35.1406 124.319 35.1406 129.213C35.1406 134.107 37.4297 138.475 40.9909 141.308C37.4297 144.142 35.1406 148.509 35.1406 153.403C35.1406 161.924 42.073 168.857 50.5937 168.857H90.1839C100.613 180.014 115.45 187 131.891 187C163.381 187 189 161.378 189 129.885C189 103.674 171.252 81.5337 147.145 74.8429ZM154.398 47.909C159.215 47.909 163.133 51.8278 163.133 56.6442C163.133 61.4606 159.215 65.3794 154.398 65.3794H132.898H72.0936C67.2773 65.3794 63.3593 61.4606 63.3593 56.6442C63.3593 51.8278 67.2773 47.909 72.0936 47.909H154.398ZM32.4531 41.1897C27.6368 41.1897 23.7187 37.2709 23.7187 32.4545C23.7187 27.6381 27.6368 23.7194 32.4531 23.7194H114.758C119.574 23.7194 123.492 27.6381 123.492 32.4545C123.492 37.2709 119.574 41.1897 114.758 41.1897H32.4531ZM50.5937 72.0987H132.898C134.251 72.0987 135.547 72.4132 136.709 72.9763C135.12 72.8429 133.514 72.771 131.891 72.771C116.12 72.771 101.823 79.1977 91.4779 89.569H50.5937C45.7777 89.569 41.8593 85.6503 41.8593 80.8339C41.8593 76.0174 45.7777 72.0987 50.5937 72.0987ZM50.5937 96.2884H85.7377C81.9242 101.514 78.9757 107.407 77.1031 113.759H50.5937C45.7774 113.759 41.8593 109.84 41.8593 105.024C41.8593 100.207 45.7774 96.2884 50.5937 96.2884ZM50.5937 120.478H75.5605C75.0509 123.54 74.7815 126.681 74.7815 129.885C74.7815 132.622 74.9793 135.313 75.3532 137.948H50.5937C45.7774 137.948 41.8593 134.03 41.8593 129.213C41.8593 124.396 45.7774 120.478 50.5937 120.478ZM50.5937 162.138C45.7774 162.138 41.8593 158.22 41.8593 153.403C41.8593 148.586 45.7774 144.668 50.5937 144.668H76.7249C78.42 150.988 81.1737 156.879 84.785 162.138H50.5937ZM131.891 180.281C104.105 180.281 81.5002 157.673 81.5002 129.885C81.5002 102.098 104.105 79.4903 131.891 79.4903C159.676 79.4903 182.281 102.098 182.281 129.885C182.281 157.673 159.676 180.281 131.891 180.281Z" fill="url(#paint5_linear)"/>
  </g>
  <defs>
  <filter id="filter0_d" x="0" y="0" width="206" height="204" filterUnits="userSpaceOnUse" color-interpolation-filters="sRGB">
  <feFlood flood-opacity="0" result="BackgroundImageFix"/>
  <feColorMatrix in="SourceAlpha" type="matrix" values="0 0 0 0 0 0 0 0 0 0 0 0 0 0 0 0 0 0 127 0"/>
  <feOffset/>
  <feGaussianBlur stdDeviation="8.5"/>
  <feColorMatrix type="matrix" values="0 0 0 0 0.916667 0 0 0 0 0.661202 0 0 0 0 0 0 0 0 1 0"/>
  <feBlend mode="normal" in2="BackgroundImageFix" result="effect1_dropShadow"/>
  <feBlend mode="normal" in="SourceGraphic" in2="effect1_dropShadow" result="shape"/>
  </filter>
  <linearGradient id="paint0_linear" x1="131.875" y1="156.976" x2="154.255" y2="145.889" gradientUnits="userSpaceOnUse">
  <stop stop-color="#FFB800"/>
  <stop offset="0.317708" stop-color="#FFDA7B"/>
  <stop offset="0.625" stop-color="#FFB800"/>
  <stop offset="1" stop-color="#FFDA7B"/>
  <stop offset="1" stop-color="#FFDA7B"/>
  </linearGradient>
  <linearGradient id="paint1_linear" x1="160.768" y1="152.157" x2="184.888" y2="141.06" gradientUnits="userSpaceOnUse">
  <stop stop-color="#FFB800"/>
  <stop offset="0.317708" stop-color="#FFDA7B"/>
  <stop offset="0.625" stop-color="#FFB800"/>
  <stop offset="1" stop-color="#FFDA7B"/>
  <stop offset="1" stop-color="#FFDA7B"/>
  </linearGradient>
  <linearGradient id="paint2_linear" x1="137.035" y1="92.9288" x2="140.477" y2="89.5068" gradientUnits="userSpaceOnUse">
  <stop stop-color="#FFB800"/>
  <stop offset="0.317708" stop-color="#FFDA7B"/>
  <stop offset="0.625" stop-color="#FFB800"/>
  <stop offset="1" stop-color="#FFDA7B"/>
  <stop offset="1" stop-color="#FFDA7B"/>
  </linearGradient>
  <linearGradient id="paint3_linear" x1="103.014" y1="169.602" x2="127.133" y2="158.505" gradientUnits="userSpaceOnUse">
  <stop stop-color="#FFB800"/>
  <stop offset="0.317708" stop-color="#FFDA7B"/>
  <stop offset="0.625" stop-color="#FFB800"/>
  <stop offset="1" stop-color="#FFDA7B"/>
  <stop offset="1" stop-color="#FFDA7B"/>
  </linearGradient>
  <linearGradient id="paint4_linear" x1="126.747" y1="173.561" x2="130.19" y2="170.139" gradientUnits="userSpaceOnUse">
  <stop stop-color="#FFB800"/>
  <stop offset="0.317708" stop-color="#FFDA7B"/>
  <stop offset="0.625" stop-color="#FFB800"/>
  <stop offset="1" stop-color="#FFDA7B"/>
  <stop offset="1" stop-color="#FFDA7B"/>
  </linearGradient>
  <linearGradient id="paint5_linear" x1="103" y1="187" x2="190.072" y2="102.081" gradientUnits="userSpaceOnUse">
  <stop stop-color="#FFB800"/>
  <stop offset="0.317708" stop-color="#FFDA7B"/>
  <stop offset="0.625" stop-color="#FFB800"/>
  <stop offset="1" stop-color="#FFDA7B"/>
  <stop offset="1" stop-color="#FFDA7B"/>
  </linearGradient>
  </defs>
</svg>
