<svg width="93" height="98" viewBox="0 0 93 98" fill="none" xmlns="http://www.w3.org/2000/svg">
<path d="M84.0053 0H56.0746H26.0726H19.5544C23.1486 0 26.0726 2.92405 26.0726 6.51819V8.2848V77.2132V84.7974V97.651H27.0778C27.0778 96.3717 28.1134 95.3362 29.3926 95.3362C30.6719 95.3362 31.7075 96.3717 31.7075 97.651H33.0172C33.0172 96.3717 34.0528 95.3362 35.3321 95.3362C36.6114 95.3362 37.647 96.3717 37.647 97.651H38.9567C38.9567 96.3717 39.9923 95.3362 41.2716 95.3362C42.5509 95.3362 43.5865 96.3717 43.5865 97.651H44.8962C44.8962 96.3717 45.9318 95.3362 47.2111 95.3362C48.4903 95.3362 49.5259 96.3717 49.5259 97.651H50.8357C50.8357 96.3717 51.8713 95.3362 53.1505 95.3362C54.4298 95.3362 55.4654 96.3717 55.4654 97.651H56.7751C56.7751 96.3717 57.8107 95.3362 59.09 95.3362C60.3693 95.3362 61.4049 96.3717 61.4049 97.651H62.7146C62.7146 96.3717 63.7502 95.3362 65.0295 95.3362C66.3088 95.3362 67.3444 96.3717 67.3444 97.651H68.6541C68.6541 96.3717 69.6897 95.3362 70.969 95.3362C72.2482 95.3362 73.2838 96.3717 73.2838 97.651H74.5936C74.5936 96.3717 75.6292 95.3362 76.9084 95.3362C78.1877 95.3362 79.2233 96.3717 79.2233 97.651H80.533C80.533 96.3717 81.5686 95.3362 82.8479 95.3362C84.1272 95.3362 85.1628 96.3717 85.1628 97.651H86.4725C86.4725 96.3717 87.5081 95.3362 88.7874 95.3362C90.0667 95.3362 91.1022 96.3717 91.1022 97.651H92.2901V8.58939C92.5947 3.83781 88.7569 0 84.0053 0Z" fill="#F9FBFC"/>
<path d="M19.5546 0C15.9604 0 13.0364 2.92405 13.0364 6.51819V32.3777V77.2132V78.2792C13.0364 81.8733 10.1123 84.7974 6.51819 84.7974H13.0364H26.1032V77.2132V6.51819C26.1032 2.92405 23.1487 0 19.5546 0Z" fill="#A3AAC1"/>
<path d="M11.8485 32.3779C11.8485 33.6572 10.8129 34.6928 9.53362 34.6928C8.25434 34.6928 7.21874 33.6572 7.21874 32.3779H5.90901C5.90901 33.6572 4.87341 34.6928 3.59414 34.6928C2.31487 34.6928 1.27927 33.6572 1.27927 32.3779H0V78.2794C0 81.8735 2.92405 84.7976 6.51819 84.7976C10.1123 84.7976 13.0364 81.8735 13.0364 78.2794V32.3779H11.8485Z" fill="#F9FBFC"/>
</svg>
