<svg width="437" height="579" viewBox="0 0 437 579" fill="none" xmlns="http://www.w3.org/2000/svg">
<path d="M417.138 34.8173H19.5536C15.9104 34.8173 12.4256 33.3917 9.89124 31.1741C6.88164 28.4813 4.98083 24.6797 4.98083 20.4029C4.98083 17.8685 5.61444 15.6509 6.72324 13.5917C9.09925 8.99808 14.0096 5.83008 19.5536 5.83008H417.138C422.682 5.83008 427.592 8.99808 429.968 13.5917C431.077 15.6509 431.711 17.8685 431.711 20.4029C431.711 24.6797 429.81 28.6397 426.8 31.1741C424.107 33.3917 420.781 34.8173 417.138 34.8173Z" fill="#2F4D7C"/>
<path d="M417.138 34.8173H19.5536C15.9104 34.8173 12.4256 33.3917 9.89124 31.1741C6.88164 28.4813 4.98083 24.6797 4.98083 20.4029C4.98083 17.8685 5.61444 15.6509 6.72324 13.5917C9.09925 8.99808 14.0096 5.83008 19.5536 5.83008H417.138C422.682 5.83008 427.592 8.99808 429.968 13.5917C431.077 15.6509 431.711 17.8685 431.711 20.4029C431.711 24.6797 429.81 28.6397 426.8 31.1741C424.107 33.3917 420.781 34.8173 417.138 34.8173Z" fill="#480081"/>
<path d="M417.138 39.5695H19.5537C14.8017 39.5695 10.2081 37.8271 6.72329 34.6591C2.60489 31.0159 0.228882 25.7887 0.228882 20.2447C0.228882 17.0767 1.02088 13.9087 2.44648 11.2159C5.77288 4.87992 12.2673 0.919922 19.5537 0.919922H417.138C424.266 0.919922 430.76 4.87992 434.245 11.2159C435.671 13.9087 436.463 17.0767 436.463 20.2447C436.463 25.7887 434.086 31.0159 429.968 34.6591C426.325 37.8271 421.731 39.5695 417.138 39.5695ZM19.5537 10.5823C15.9105 10.5823 12.5841 12.6415 10.8417 15.8095C10.0497 17.2351 9.73288 18.8191 9.73288 20.4031C9.73288 23.2543 11.0001 25.7887 13.0593 27.6895C14.8017 29.2735 17.1777 30.2239 19.5537 30.2239H417.138C419.514 30.2239 421.89 29.2735 423.632 27.6895C425.691 25.7887 426.959 23.2543 426.959 20.4031C426.959 18.8191 426.642 17.2351 425.85 15.8095C424.107 12.6415 420.781 10.5823 417.138 10.5823H19.5537Z" fill="#FFB800"/>
<path d="M55.3523 70.1404L65.0147 60.478L74.5187 70.1404L84.1811 60.478L93.8435 70.1404L103.348 60.478L113.01 70.1404L122.672 60.478L132.176 70.1404L141.839 60.478L151.501 70.1404L161.164 60.478L170.668 70.1404L180.33 60.478L189.992 70.1404L199.496 60.478L209.159 70.1404L218.821 60.478L228.325 70.1404L237.988 60.478L247.65 70.1404L257.312 60.478L266.816 70.1404L276.479 60.478L286.141 70.1404L295.645 60.478L305.308 70.1404L314.97 60.478L324.474 70.1404L334.136 60.478L343.799 70.1404L353.461 60.478L362.965 70.1404L372.311 60.7948V10.582H46.0067V60.7948L55.3523 70.1404Z" fill="#3A007D" fill-opacity="0.4"/>
<path d="M64.3811 70.1404L74.0435 60.478L83.7058 70.1404L93.2098 60.478L102.872 70.1404L112.535 60.478L122.197 70.1404L131.701 60.478L141.363 70.1404L151.026 60.478L160.53 70.1404L170.192 60.478L179.855 70.1404L189.359 60.478L199.021 70.1404L208.683 60.478L218.346 70.1404L227.85 60.478L237.512 70.1404L247.175 60.478L256.679 70.1404L266.341 60.478L276.003 70.1404L285.507 60.478L295.17 70.1404L304.832 60.478L314.495 70.1404L323.999 60.478L333.661 70.1404L343.323 60.478L352.827 70.1404L362.49 60.478L372.152 70.1404L381.498 60.7948V10.582H55.1938V60.7948L64.3811 70.1404Z" fill="white"/>
<path d="M381.498 10.582H55.1938V23.0956H381.498V10.582Z" fill="#EAE8DF"/>
<path d="M362.965 90.5741L353.461 80.7533L343.798 90.5741L334.136 80.7533L324.473 90.5741L314.969 80.7533L305.307 90.5741L295.645 80.7533L286.141 90.5741L276.478 80.7533L266.816 90.5741L257.312 80.7533L247.649 90.5741L237.987 80.7533L228.325 90.5741L218.821 80.7533L209.158 90.5741L199.496 80.7533L189.992 90.5741L180.329 80.7533L170.667 90.5741L161.163 80.7533L151.5 90.5741L141.838 80.7533L132.176 90.5741L122.672 80.7533L113.009 90.5741L103.347 80.7533L93.8429 90.5741L84.1805 80.7533L74.5181 90.5741L65.0141 80.7533L55.3517 90.5741L46.0061 80.4365V569.576L55.3517 578.921L65.0141 569.259L74.5181 578.921L84.1805 569.259L93.8429 578.921L103.347 569.259L113.009 578.921L122.672 569.259L132.176 578.921L141.838 569.259L151.5 578.921L161.163 569.259L170.667 578.921L180.329 569.259L189.992 578.921L199.496 569.259L209.158 578.921L218.821 569.259L228.325 578.921L237.987 569.259L247.649 578.921L257.312 569.259L266.816 578.921L276.478 569.259L286.141 578.921L295.645 569.259L305.307 578.921L314.969 569.259L324.473 578.921L334.136 569.259L343.798 578.921L353.461 569.259L362.965 578.921L372.31 569.576V80.4365L362.965 90.5741Z" fill="#3A007D" fill-opacity="0.4"/>
<path d="M372.151 90.5741L362.489 80.7533L352.827 90.5741L343.323 80.7533L333.66 90.5741L323.998 80.7533L314.494 90.5741L304.831 80.7533L295.169 90.5741L285.507 80.7533L276.003 90.5741L266.34 80.7533L256.678 90.5741L247.174 80.7533L237.511 90.5741L227.849 80.7533L218.345 90.5741L208.683 80.7533L199.02 90.5741L189.358 80.7533L179.854 90.5741L170.192 80.7533L160.529 90.5741L151.025 80.7533L141.363 90.5741L131.7 80.7533L122.196 90.5741L112.534 80.7533L102.872 90.5741L93.2091 80.7533L83.7051 90.5741L74.0427 80.7533L64.3803 90.5741L55.1931 80.4365V569.576L64.3803 578.921L74.0427 569.259L83.7051 578.921L93.2091 569.259L102.872 578.921L112.534 569.259L122.196 578.921L131.7 569.259L141.363 578.921L151.025 569.259L160.529 578.921L170.192 569.259L179.854 578.921L189.358 569.259L199.02 578.921L208.683 569.259L218.345 578.921L227.849 569.259L237.511 578.921L247.174 569.259L256.678 578.921L266.34 569.259L276.003 578.921L285.507 569.259L295.169 578.921L304.831 569.259L314.494 578.921L323.998 569.259L333.66 578.921L343.323 569.259L352.827 578.921L362.489 569.259L372.151 578.921L381.497 569.576V80.4365L372.151 90.5741Z" fill="white"/>
<path d="M68.1826 287.465C49.9667 285.723 33.8099 292.059 26.0483 309.166C18.6035 325.481 18.7619 344.489 18.7619 362.071C18.7619 365.873 24.6227 365.873 24.7811 362.071C24.7811 346.707 24.6227 330.55 29.8499 315.819C36.0274 298.236 50.2834 291.584 68.341 293.326C71.9842 293.801 71.9842 287.782 68.1826 287.465Z" fill="white"/>
<path d="M35.2354 367.457C31.5922 365.873 27.949 365.24 25.4146 361.913C23.8306 359.854 21.1378 362.705 22.5634 364.765C25.2562 368.249 29.2162 369.2 33.1762 370.942C35.5522 371.893 37.453 368.408 35.2354 367.457Z" fill="white"/>
<path d="M21.6128 363.656C20.8208 369.675 21.7712 375.852 20.9792 381.872C20.6624 384.406 24.464 385.515 24.7808 382.98C25.7312 376.486 24.6224 370.15 25.5728 363.656C25.8896 361.121 21.9296 361.121 21.6128 363.656Z" fill="white"/>
<path d="M19.0784 363.656C15.752 368.249 14.4847 373.793 11.6335 378.704C10.3663 380.921 13.6927 382.822 15.1183 380.763C18.1279 376.011 19.2367 370.308 22.5631 365.715C24.1471 363.656 20.6623 361.596 19.0784 363.656Z" fill="white"/>
<path d="M18.7616 361.596C14.4848 365.081 10.6832 369.358 5.7728 371.892C3.5552 373.16 5.45601 376.486 7.83201 375.377C13.0592 372.684 17.1776 368.249 21.6128 364.448C23.5136 362.705 20.6624 359.854 18.7616 361.596Z" fill="white"/>
<path d="M365.499 293.326C383.399 291.584 397.813 298.236 403.991 315.819C409.218 330.55 409.059 346.707 409.059 362.071C409.059 365.873 415.079 365.873 415.079 362.071C415.079 344.489 415.237 325.481 407.792 309.166C399.872 292.059 383.715 285.723 365.658 287.465C361.698 287.782 361.698 293.801 365.499 293.326Z" fill="white"/>
<path d="M400.506 370.783C404.466 369.041 408.426 368.249 411.119 364.606C412.703 362.547 409.852 359.854 408.268 361.754C405.733 364.922 401.932 365.714 398.447 367.298C396.071 368.407 398.13 371.892 400.506 370.783Z" fill="white"/>
<path d="M408.109 363.656C408.901 370.15 407.951 376.486 408.901 382.98C409.218 385.515 413.02 384.406 412.703 381.872C411.911 375.852 412.861 369.675 412.069 363.656C411.753 361.121 407.793 361.121 408.109 363.656Z" fill="white"/>
<path d="M411.119 365.715C414.445 370.308 415.712 375.852 418.563 380.763C419.831 382.98 423.315 380.921 422.048 378.704C419.039 373.952 417.93 368.249 414.603 363.656C413.019 361.596 409.535 363.656 411.119 365.715Z" fill="white"/>
<path d="M412.069 364.289C416.504 368.091 420.623 372.367 425.85 375.219C428.067 376.327 430.127 373.001 427.909 371.734C422.999 369.199 419.197 365.081 414.92 361.438C412.861 359.854 410.168 362.705 412.069 364.289Z" fill="white"/>
<path d="M179.696 268.458C193.793 268.458 193.793 246.599 179.696 246.599C165.756 246.757 165.756 268.458 179.696 268.458Z" fill="#4D4D4D"/>
<path d="M182.705 257.37C186.19 257.37 186.19 251.984 182.705 251.984C179.062 251.984 179.062 257.37 182.705 257.37Z" fill="white"/>
<path d="M250.976 268.458C265.073 268.458 265.073 246.599 250.976 246.599C236.878 246.757 236.878 268.458 250.976 268.458Z" fill="#4D4D4D"/>
<path d="M253.827 257.37C257.312 257.37 257.312 251.984 253.827 251.984C250.342 251.984 250.342 257.37 253.827 257.37Z" fill="white"/>
<path d="M150.708 300.138C170.033 300.138 170.033 270.042 150.708 270.042C131.225 270.042 131.225 300.138 150.708 300.138Z" fill="#FFB8D4"/>
<path d="M282.973 300.138C302.297 300.138 302.297 270.042 282.973 270.042C263.648 270.042 263.648 300.138 282.973 300.138Z" fill="#FFB8D4"/>
<path d="M237.829 296.336C237.829 286.674 228.483 278.912 216.92 278.912C205.357 278.912 196.011 286.674 196.011 296.336" stroke="#4D4D4D" stroke-width="2.5965" stroke-miterlimit="10" stroke-linecap="round" stroke-linejoin="round"/>
<path d="M302.298 183.714C303.882 193.693 281.389 240.104 306.416 239.946C329.067 239.629 314.178 198.445 302.298 183.714Z" fill="#00D5F5"/>
<path d="M311.01 215.869C312.593 216.978 313.544 218.562 314.177 220.304C314.811 222.047 315.128 223.789 315.128 225.532C315.128 227.274 314.811 229.016 314.177 230.759C313.544 232.501 312.593 234.085 311.01 235.194C310.693 233.293 310.693 231.709 310.534 230.125C310.376 228.541 310.376 226.957 310.376 225.532C310.376 223.948 310.376 222.522 310.534 220.938C310.693 219.354 310.851 217.77 311.01 215.869Z" fill="white"/>
</svg>
