<svg width="170" height="170" viewBox="0 0 170 170" fill="none" xmlns="http://www.w3.org/2000/svg">
<path d="M16.3154 163.108L6.92696 153.714C-2.25739 144.525 -2.25739 129.414 6.92696 120.225L120.201 6.89187C129.385 -2.29729 144.488 -2.29729 153.672 6.89187L163.061 16.2852C172.245 25.4743 172.245 40.5854 163.061 49.7746L49.7873 163.108C40.6029 172.297 25.4998 172.297 16.3154 163.108Z" fill="#DE3A3A"/>
<path d="M110.608 43.8529L109.791 43.0361C106.73 39.973 106.73 34.8679 109.791 31.8049L132.854 8.72991C135.916 5.66685 141.018 5.66685 144.08 8.72991L144.896 9.54671C147.958 12.6098 147.958 17.7148 144.896 20.7779L121.833 43.8529C118.568 46.9159 113.669 46.9159 110.608 43.8529Z" fill="#ED4949"/>
<path d="M166.53 38.1359L53.2567 151.469C44.0724 160.658 28.9692 160.658 19.7849 151.469L10.3964 142.075C5.70219 137.379 3.25303 130.844 3.45713 124.718C-2.05348 133.907 -1.03301 145.955 6.92676 153.715L16.3152 163.108C25.4996 172.298 40.6027 172.298 49.7871 163.108L163.061 49.7756C167.551 45.2831 169.796 39.5654 170 33.8477C168.98 35.2771 167.755 36.7065 166.53 38.1359Z" fill="#BD2828"/>
<path d="M93.8721 33.0293L32.8472 94.0861C52.8486 101.029 68.7682 116.957 75.7075 136.969L136.732 75.912C116.731 68.9691 101.015 53.0412 93.8721 33.0293Z" fill="#BD2828"/>
<path d="M6.92696 16.2852L16.3154 6.89187C25.4998 -2.29729 40.6029 -2.29729 49.7873 6.89187L163.061 120.225C172.245 129.414 172.245 144.525 163.061 153.714L153.672 163.108C144.488 172.297 129.385 172.297 120.201 163.108L6.92696 49.7746C-2.25739 40.3812 -2.25739 25.4743 6.92696 16.2852Z" fill="#FF4747"/>
<path d="M30.1938 13.0178C33.4593 9.75057 38.7659 9.75057 42.0314 13.0178L71.0131 42.0147C74.2787 45.2819 74.2787 50.5913 71.0131 53.8585C67.7476 57.1258 62.4411 57.1258 59.1755 53.8585L30.1938 24.8616C26.9282 21.5943 26.9282 16.2851 30.1938 13.0178Z" fill="#FF6B6B"/>
<path d="M169.388 132.273C168.571 136.97 166.531 141.462 162.857 145.138L153.468 154.531C144.284 163.72 129.181 163.72 119.996 154.531L6.72283 41.1984C3.25319 37.7269 1.21223 33.6429 0.395841 29.1504C-0.828739 36.5017 1.41632 44.0572 6.92693 49.5707L120.201 162.904C129.385 172.093 144.488 172.093 153.672 162.904L163.061 153.51C168.776 147.793 171.021 139.624 169.388 132.273Z" fill="#D43737"/>
<path d="M72.4419 99.601C72.4419 92.658 77.9525 87.1445 84.8918 87.1445C91.8311 87.1445 97.3417 92.658 97.3417 99.601" stroke="#451616" stroke-width="1.6095" stroke-miterlimit="10" stroke-linecap="round" stroke-linejoin="round"/>
<path d="M66.1149 85.9191C68.3693 85.9191 70.1968 84.0906 70.1968 81.835C70.1968 79.5795 68.3693 77.751 66.1149 77.751C63.8605 77.751 62.033 79.5795 62.033 81.835C62.033 84.0906 63.8605 85.9191 66.1149 85.9191Z" fill="#451616"/>
<path d="M107.342 81.835C107.342 84.0813 105.505 85.9191 103.26 85.9191C101.015 85.9191 99.1785 84.0813 99.1785 81.835C99.1785 79.5888 101.015 77.751 103.26 77.751C105.71 77.9552 107.342 79.5888 107.342 81.835Z" fill="#451616"/>
</svg>
