<svg width="188" height="206" viewBox="0 0 188 206" fill="none" xmlns="http://www.w3.org/2000/svg">
<g filter="url(#filter0_d)">
<path d="M167.638 99.6409H142.751V20.3596C142.751 19.0011 141.932 17.7759 140.675 17.2559C139.418 16.7355 137.972 17.0238 137.011 17.9839L127.485 27.5003L117.96 17.9842C116.647 16.6724 114.518 16.6724 113.204 17.9842L103.679 27.5007L94.1547 17.9842C92.8417 16.6724 90.7125 16.6724 89.3991 17.9842L79.8737 27.5007L70.348 17.9842C69.0349 16.6724 66.9058 16.6724 65.5927 17.9842L56.0673 27.5007L46.5426 17.9842C45.2296 16.6724 43.1004 16.6724 41.787 17.9842L32.2616 27.5007L22.7366 17.9842C21.4316 16.6804 19.3209 16.6737 18.0045 17.9657C17.3132 18.6447 16.9779 19.5494 17.0011 20.448V171.532C17.0011 181.164 24.8446 189 34.4856 189H153.511C153.512 189 153.512 189 153.513 189C153.514 189 153.515 189 153.516 189C163.157 189 171 181.164 171 171.532V103C171 101.145 169.495 99.6409 167.638 99.6409ZM34.4856 182.281C28.5524 182.281 23.7259 177.459 23.7259 171.532V28.4742L29.884 34.6266C31.1971 35.9384 33.3262 35.9384 34.6396 34.6266L44.165 25.1101L53.6904 34.6266C55.0034 35.9384 57.1326 35.9384 58.446 34.6266L67.9714 25.1101L77.4971 34.6266C78.8101 35.9384 80.9393 35.9384 82.2524 34.6266L91.7777 25.1101L101.303 34.6266C102.616 35.9384 104.745 35.9384 106.059 34.6266L115.584 25.1101L125.11 34.6266C126.423 35.9384 128.552 35.9384 129.865 34.6266L136.028 28.4695V103C136.028 103.031 136.032 103.06 136.033 103.091V171.532C136.033 175.584 137.425 179.315 139.751 182.281H34.4856ZM164.275 171.532C164.275 177.459 159.448 182.281 153.515 182.281C147.583 182.281 142.756 177.459 142.756 171.532V106.359H164.275V171.532Z" fill="url(#paint0_linear)"/>
<path d="M113.658 70.366H107.105C105.248 70.366 103.742 71.87 103.742 73.7253C103.742 75.5807 105.248 77.0847 107.105 77.0847H113.658C115.515 77.0847 117.021 75.5807 117.021 73.7253C117.021 71.87 115.515 70.366 113.658 70.366Z" fill="url(#paint1_linear)"/>
<path d="M52.6485 70.366H46.095C44.2378 70.366 42.7324 71.87 42.7324 73.7253C42.7324 75.5807 44.2378 77.0847 46.095 77.0847H52.6485C54.5057 77.0847 56.0111 75.5807 56.0111 73.7253C56.0111 71.87 54.5057 70.366 52.6485 70.366Z" fill="url(#paint2_linear)"/>
<path d="M115.359 114.699H62.0891C60.232 114.699 58.7266 116.203 58.7266 118.058C58.7266 119.913 60.232 121.417 62.0891 121.417H115.359C117.216 121.417 118.722 119.913 118.722 118.058C118.722 116.203 117.216 114.699 115.359 114.699Z" fill="url(#paint3_linear)"/>
<path d="M46.7691 115.683C46.1437 115.058 45.2762 114.699 44.3918 114.699C43.5075 114.699 42.6399 115.058 42.0145 115.683C41.3891 116.308 41.0293 117.175 41.0293 118.058C41.0293 118.942 41.3891 119.808 42.0145 120.433C42.6399 121.058 43.5075 121.417 44.3918 121.417C45.2762 121.417 46.1437 121.058 46.7691 120.433C47.3946 119.808 47.7544 118.942 47.7544 118.058C47.7544 117.175 47.3946 116.308 46.7691 115.683Z" fill="url(#paint4_linear)"/>
<path d="M115.359 136.87H62.0891C60.232 136.87 58.7266 138.374 58.7266 140.23C58.7266 142.085 60.232 143.589 62.0891 143.589H115.359C117.216 143.589 118.722 142.085 118.722 140.23C118.722 138.374 117.216 136.87 115.359 136.87Z" fill="url(#paint5_linear)"/>
<path d="M46.7691 137.855C46.1437 137.23 45.2762 136.87 44.3918 136.87C43.5075 136.87 42.6399 137.23 42.0145 137.855C41.3891 138.479 41.0293 139.346 41.0293 140.23C41.0293 141.113 41.3891 141.98 42.0145 142.605C42.6399 143.23 43.5075 143.589 44.3918 143.589C45.2762 143.589 46.1437 143.23 46.7691 142.605C47.3946 141.98 47.7544 141.113 47.7544 140.23C47.7544 139.346 47.3946 138.479 46.7691 137.855Z" fill="url(#paint6_linear)"/>
<path d="M115.359 159.042H62.0891C60.232 159.042 58.7266 160.545 58.7266 162.401C58.7266 164.256 60.232 165.76 62.0891 165.76H115.359C117.216 165.76 118.722 164.256 118.722 162.401C118.722 160.545 117.216 159.042 115.359 159.042Z" fill="url(#paint7_linear)"/>
<path d="M46.7691 160.026C46.1437 159.401 45.2762 159.042 44.3918 159.042C43.5075 159.042 42.6399 159.401 42.0145 160.026C41.3891 160.651 41.0293 161.517 41.0293 162.401C41.0293 163.284 41.3891 164.151 42.0145 164.776C42.6399 165.401 43.5075 165.76 44.3918 165.76C45.2762 165.76 46.1437 165.401 46.7691 164.776C47.3946 164.151 47.7544 163.284 47.7544 162.401C47.7544 161.517 47.3946 160.651 46.7691 160.026Z" fill="url(#paint8_linear)"/>
<path d="M70.3115 77.2226V80.4869C70.3115 84.0776 73.1148 87.0154 76.541 87.0154H82.7705C86.1967 87.0154 89 84.0776 89 80.4869V78.5284C89 75.5905 87.1311 73.3055 84.6393 72.3263L74.3607 68.7356C71.8689 67.7563 70 65.4713 70 62.5335V60.5749C70 56.9842 72.8033 54.0464 76.2295 54.0464H82.459C85.8852 54.0464 88.6885 56.9842 88.6885 60.5749V63.8392" stroke="url(#paint9_linear)" stroke-width="7" stroke-miterlimit="10"/>
<path d="M80 55.0453V45.0547" stroke="url(#paint10_linear)" stroke-width="7" stroke-miterlimit="10"/>
<path d="M80 87.0154V97.006" stroke="url(#paint11_linear)" stroke-width="7" stroke-miterlimit="10"/>
</g>
<defs>
<filter id="filter0_d" x="0" y="0" width="188" height="206" filterUnits="userSpaceOnUse" color-interpolation-filters="sRGB">
<feFlood flood-opacity="0" result="BackgroundImageFix"/>
<feColorMatrix in="SourceAlpha" type="matrix" values="0 0 0 0 0 0 0 0 0 0 0 0 0 0 0 0 0 0 127 0"/>
<feOffset/>
<feGaussianBlur stdDeviation="8.5"/>
<feColorMatrix type="matrix" values="0 0 0 0 0.916667 0 0 0 0 0.661202 0 0 0 0 0 0 0 0 1 0"/>
<feBlend mode="normal" in2="BackgroundImageFix" result="effect1_dropShadow"/>
<feBlend mode="normal" in="SourceGraphic" in2="effect1_dropShadow" result="shape"/>
</filter>
<linearGradient id="paint0_linear" x1="94.0002" y1="189" x2="181.177" y2="113.761" gradientUnits="userSpaceOnUse">
<stop stop-color="#FFB800"/>
<stop offset="0.317708" stop-color="#FFDA7B"/>
<stop offset="0.625" stop-color="#FFB800"/>
<stop offset="1" stop-color="#FFDA7B"/>
<stop offset="1" stop-color="#FFDA7B"/>
</linearGradient>
<linearGradient id="paint1_linear" x1="110.382" y1="77.0847" x2="113.215" y2="71.6872" gradientUnits="userSpaceOnUse">
<stop stop-color="#FFB800"/>
<stop offset="0.317708" stop-color="#FFDA7B"/>
<stop offset="0.625" stop-color="#FFB800"/>
<stop offset="1" stop-color="#FFDA7B"/>
<stop offset="1" stop-color="#FFDA7B"/>
</linearGradient>
<linearGradient id="paint2_linear" x1="49.3717" y1="77.0847" x2="52.205" y2="71.6872" gradientUnits="userSpaceOnUse">
<stop stop-color="#FFB800"/>
<stop offset="0.317708" stop-color="#FFDA7B"/>
<stop offset="0.625" stop-color="#FFB800"/>
<stop offset="1" stop-color="#FFDA7B"/>
<stop offset="1" stop-color="#FFDA7B"/>
</linearGradient>
<linearGradient id="paint3_linear" x1="88.7242" y1="121.417" x2="89.5134" y2="114.624" gradientUnits="userSpaceOnUse">
<stop stop-color="#FFB800"/>
<stop offset="0.317708" stop-color="#FFDA7B"/>
<stop offset="0.625" stop-color="#FFB800"/>
<stop offset="1" stop-color="#FFDA7B"/>
<stop offset="1" stop-color="#FFDA7B"/>
</linearGradient>
<linearGradient id="paint4_linear" x1="44.3918" y1="121.417" x2="47.832" y2="118.098" gradientUnits="userSpaceOnUse">
<stop stop-color="#FFB800"/>
<stop offset="0.317708" stop-color="#FFDA7B"/>
<stop offset="0.625" stop-color="#FFB800"/>
<stop offset="1" stop-color="#FFDA7B"/>
<stop offset="1" stop-color="#FFDA7B"/>
</linearGradient>
<linearGradient id="paint5_linear" x1="88.7242" y1="143.589" x2="89.5134" y2="136.796" gradientUnits="userSpaceOnUse">
<stop stop-color="#FFB800"/>
<stop offset="0.317708" stop-color="#FFDA7B"/>
<stop offset="0.625" stop-color="#FFB800"/>
<stop offset="1" stop-color="#FFDA7B"/>
<stop offset="1" stop-color="#FFDA7B"/>
</linearGradient>
<linearGradient id="paint6_linear" x1="44.3918" y1="143.589" x2="47.832" y2="140.27" gradientUnits="userSpaceOnUse">
<stop stop-color="#FFB800"/>
<stop offset="0.317708" stop-color="#FFDA7B"/>
<stop offset="0.625" stop-color="#FFB800"/>
<stop offset="1" stop-color="#FFDA7B"/>
<stop offset="1" stop-color="#FFDA7B"/>
</linearGradient>
<linearGradient id="paint7_linear" x1="88.7242" y1="165.76" x2="89.5134" y2="158.967" gradientUnits="userSpaceOnUse">
<stop stop-color="#FFB800"/>
<stop offset="0.317708" stop-color="#FFDA7B"/>
<stop offset="0.625" stop-color="#FFB800"/>
<stop offset="1" stop-color="#FFDA7B"/>
<stop offset="1" stop-color="#FFDA7B"/>
</linearGradient>
<linearGradient id="paint8_linear" x1="44.3918" y1="165.76" x2="47.832" y2="162.441" gradientUnits="userSpaceOnUse">
<stop stop-color="#FFB800"/>
<stop offset="0.317708" stop-color="#FFDA7B"/>
<stop offset="0.625" stop-color="#FFB800"/>
<stop offset="1" stop-color="#FFDA7B"/>
<stop offset="1" stop-color="#FFDA7B"/>
</linearGradient>
<linearGradient id="paint9_linear" x1="79.5" y1="87.0154" x2="93.8414" y2="79.0486" gradientUnits="userSpaceOnUse">
<stop stop-color="#FFB800"/>
<stop offset="0.317708" stop-color="#FFDA7B"/>
<stop offset="0.625" stop-color="#FFB800"/>
<stop offset="1" stop-color="#FFDA7B"/>
<stop offset="1" stop-color="#FFDA7B"/>
</linearGradient>
<linearGradient id="paint10_linear" x1="80.5" y1="55.0453" x2="81.4786" y2="54.9509" gradientUnits="userSpaceOnUse">
<stop stop-color="#FFB800"/>
<stop offset="0.317708" stop-color="#FFDA7B"/>
<stop offset="0.625" stop-color="#FFB800"/>
<stop offset="1" stop-color="#FFDA7B"/>
<stop offset="1" stop-color="#FFDA7B"/>
</linearGradient>
<linearGradient id="paint11_linear" x1="80.5" y1="97.006" x2="81.4786" y2="96.9116" gradientUnits="userSpaceOnUse">
<stop stop-color="#FFB800"/>
<stop offset="0.317708" stop-color="#FFDA7B"/>
<stop offset="0.625" stop-color="#FFB800"/>
<stop offset="1" stop-color="#FFDA7B"/>
<stop offset="1" stop-color="#FFDA7B"/>
</linearGradient>
</defs>
</svg>
