<svg width="188" height="206" viewBox="0 0 188 206" fill="none" xmlns="http://www.w3.org/2000/svg">
<g filter="url(#filter0_d)">
<path d="M167.638 99.6409H142.751V20.3596C142.751 19.0011 141.932 17.7759 140.675 17.2559C139.418 16.7355 137.972 17.0238 137.011 17.9839L127.485 27.5003L117.96 17.9842C116.647 16.6724 114.518 16.6724 113.204 17.9842L103.679 27.5007L94.1547 17.9842C92.8417 16.6724 90.7125 16.6724 89.3991 17.9842L79.8737 27.5007L70.348 17.9842C69.0349 16.6724 66.9058 16.6724 65.5927 17.9842L56.0673 27.5007L46.5426 17.9842C45.2296 16.6724 43.1004 16.6724 41.787 17.9842L32.2616 27.5007L22.7366 17.9842C21.4316 16.6804 19.3209 16.6737 18.0045 17.9657C17.3132 18.6447 16.9779 19.5494 17.0011 20.448V171.532C17.0011 181.164 24.8446 189 34.4856 189H153.511C153.512 189 153.512 189 153.513 189C153.514 189 153.515 189 153.516 189C163.157 189 171 181.164 171 171.532V103C171 101.145 169.495 99.6409 167.638 99.6409ZM34.4856 182.281C28.5524 182.281 23.7259 177.459 23.7259 171.532V28.4742L29.884 34.6266C31.1971 35.9384 33.3262 35.9384 34.6396 34.6266L44.165 25.1101L53.6904 34.6266C55.0034 35.9384 57.1326 35.9384 58.446 34.6266L67.9714 25.1101L77.4971 34.6266C78.8101 35.9384 80.9393 35.9384 82.2524 34.6266L91.7777 25.1101L101.303 34.6266C102.616 35.9384 104.745 35.9384 106.059 34.6266L115.584 25.1101L125.11 34.6266C126.423 35.9384 128.552 35.9384 129.865 34.6266L136.028 28.4695V103C136.028 103.031 136.032 103.06 136.033 103.091V171.532C136.033 175.584 137.425 179.315 139.751 182.281H34.4856ZM164.275 171.532C164.275 177.459 159.448 182.281 153.515 182.281C147.583 182.281 142.756 177.459 142.756 171.532V106.359H164.275V171.532Z" fill="url(#paint0_linear)"/>
</g>
<path d="M69.8724 121.048L107.522 83.3975C108.835 82.085 110.963 82.085 112.276 83.3975C113.588 84.7101 113.588 86.8381 112.276 88.1507L74.6255 125.801C73.313 127.113 71.185 127.113 69.8724 125.801C68.5601 124.488 68.5599 122.36 69.8724 121.048Z" fill="url(#paint1_linear)"/>
<path d="M51.3777 107.472L69.7185 125.796C71.0317 127.107 73.1607 127.107 74.4739 125.796C75.787 124.484 75.787 122.357 74.4739 121.045L56.133 102.721C54.8199 101.409 52.6908 101.409 51.3777 102.721C50.0645 104.033 50.0645 106.16 51.3777 107.472Z" fill="url(#paint2_linear)"/>
<defs>
<filter id="filter0_d" x="0" y="0" width="188" height="206" filterUnits="userSpaceOnUse" color-interpolation-filters="sRGB">
<feFlood flood-opacity="0" result="BackgroundImageFix"/>
<feColorMatrix in="SourceAlpha" type="matrix" values="0 0 0 0 0 0 0 0 0 0 0 0 0 0 0 0 0 0 127 0"/>
<feOffset/>
<feGaussianBlur stdDeviation="8.5"/>
<feColorMatrix type="matrix" values="0 0 0 0 0.916667 0 0 0 0 0.661202 0 0 0 0 0 0 0 0 1 0"/>
<feBlend mode="normal" in2="BackgroundImageFix" result="effect1_dropShadow"/>
<feBlend mode="normal" in="SourceGraphic" in2="effect1_dropShadow" result="shape"/>
</filter>
<linearGradient id="paint0_linear" x1="94.0002" y1="189" x2="181.177" y2="113.761" gradientUnits="userSpaceOnUse">
<stop stop-color="#FFB800"/>
<stop offset="0.317708" stop-color="#FFDA7B"/>
<stop offset="0.625" stop-color="#FFB800"/>
<stop offset="1" stop-color="#FFDA7B"/>
<stop offset="1" stop-color="#FFDA7B"/>
</linearGradient>
<linearGradient id="paint1_linear" x1="93.4506" y1="106.976" x2="88.0862" y2="102.729" gradientUnits="userSpaceOnUse">
<stop stop-color="#FFB800"/>
<stop offset="0.317708" stop-color="#FFDA7B"/>
<stop offset="0.625" stop-color="#FFB800"/>
<stop offset="1" stop-color="#FFDA7B"/>
<stop offset="1" stop-color="#FFDA7B"/>
</linearGradient>
<linearGradient id="paint2_linear" x1="65.3034" y1="111.883" x2="61.6435" y2="117.536" gradientUnits="userSpaceOnUse">
<stop stop-color="#FFB800"/>
<stop offset="0.317708" stop-color="#FFDA7B"/>
<stop offset="0.625" stop-color="#FFB800"/>
<stop offset="1" stop-color="#FFDA7B"/>
<stop offset="1" stop-color="#FFDA7B"/>
</linearGradient>
</defs>
</svg>
