<svg width="300" height="88" viewBox="0 0 300 88" fill="none" xmlns="http://www.w3.org/2000/svg">
<path d="M282.07 56.9229H187.212C181.703 56.9229 177.195 52.3972 177.195 46.8658V16.7949C177.195 11.2635 181.703 6.73779 187.212 6.73779H282.07C287.579 6.73779 292.087 11.2635 292.087 16.7949V46.7652C292.087 52.3972 287.579 56.9229 282.07 56.9229Z" fill="#FFB600"/>
<path d="M7.91321 79.7531V6.6377H57.3957V19.6114H23.5393V37.9154H53.0885V50.8891H23.5393V79.8537H7.91321V79.7531Z" fill="white"/>
<path d="M67.1118 79.7531V6.6377H82.7379V79.7531H67.1118Z" fill="white"/>
<path d="M97.7629 79.7531V6.6377H116.093L148.347 58.2308V6.6377H163.973V79.7531H145.643L113.389 28.16V79.7531H97.7629Z" fill="white"/>
<path d="M188.013 47.7713V15.8901H199.733C209.149 15.8901 213.756 19.5107 213.756 26.8524C213.756 30.5736 212.554 33.3896 210.15 35.3004C207.746 37.2113 204.24 38.217 199.633 38.217H194.725V47.6707H188.013V47.7713ZM194.725 32.6856H200.234C204.541 32.4844 206.644 30.5736 206.644 26.8524C206.644 24.9416 206.043 23.5336 204.841 22.729C203.639 21.9244 201.937 21.5221 199.533 21.5221H194.624V32.6856H194.725Z" fill="#49009E"/>
<path d="M218.865 47.7713V15.8901H230.584C235.192 15.8901 238.598 16.8959 241.002 18.8067C243.406 20.7176 244.608 23.433 244.608 26.8524C244.608 31.4787 242.404 34.5964 238.097 36.2056L244.608 47.7713H236.895L231.085 37.4124H230.584H225.676V47.7713H218.865ZM225.676 31.7804H230.584C235.292 31.7804 237.596 30.1713 237.596 26.8524C237.596 23.3324 235.292 21.5221 230.584 21.5221H225.676V31.7804Z" fill="#49009E"/>
<path d="M248.414 31.5792C248.414 26.45 249.917 22.5277 252.922 19.6112C255.927 16.6946 259.833 15.186 264.841 15.186C269.85 15.186 273.756 16.6946 276.761 19.6112C279.766 22.5277 281.269 26.5506 281.269 31.5792C281.269 36.7083 279.766 40.8317 276.761 43.8489C273.756 46.9666 269.75 48.4752 264.841 48.4752C259.933 48.4752 255.927 46.9666 252.922 43.8489C249.917 40.7312 248.414 36.7083 248.414 31.5792ZM255.726 31.5792C255.726 35.0992 256.628 37.8146 258.431 39.826C260.234 41.8375 262.337 42.8432 264.942 42.8432C267.546 42.8432 269.649 41.8375 271.452 39.826C273.255 37.8146 274.157 35.0992 274.157 31.5792C274.157 28.0592 273.255 25.4443 271.553 23.634C269.75 21.8237 267.646 20.9186 265.042 20.9186C262.437 20.9186 260.334 21.8237 258.531 23.634C256.528 25.4443 255.726 28.0592 255.726 31.5792Z" fill="#49009E"/>
<path d="M186.5 80C191.747 80 196 75.7467 196 70.5C196 65.2533 191.747 61 186.5 61C181.253 61 177 65.2533 177 70.5C177 75.7467 181.253 80 186.5 80Z" fill="#FFE14D"/>
<path d="M186.5 77.7363C182.51 77.7363 179.264 74.49 179.264 70.5C179.264 66.51 182.51 63.2637 186.5 63.2637C190.49 63.2637 193.736 66.51 193.736 70.5C193.736 74.49 190.49 77.7363 186.5 77.7363Z" fill="#FFBB33"/>
<path d="M193.736 70.5C193.736 66.51 190.49 63.2637 186.5 63.2637V77.7363C190.49 77.7363 193.736 74.49 193.736 70.5Z" fill="#FFBB33"/>
<path d="M187.057 74.9532V74.3461C188.326 74.1393 189.283 73.2401 189.283 72.1646C189.283 71.089 188.326 70.1898 187.057 69.983V67.7822C187.697 67.9393 188.17 68.3512 188.17 68.8247C188.17 69.1324 188.419 69.3813 188.727 69.3813C189.034 69.3813 189.283 69.1324 189.283 68.8247C189.283 67.7492 188.326 66.85 187.057 66.6432V66.0415C187.057 65.7338 186.808 65.4849 186.5 65.4849V75.5098C186.808 75.5098 187.057 75.2608 187.057 74.9532ZM187.057 71.122C187.697 71.2791 188.17 71.691 188.17 72.1645C188.17 72.638 187.697 73.0499 187.057 73.207V71.122Z" fill="#FFBB33"/>
<path d="M187.057 69.983V67.7822C187.697 67.9393 188.17 68.3512 188.17 68.8247C188.17 69.1324 188.419 69.3813 188.727 69.3813C189.034 69.3813 189.283 69.1324 189.283 68.8247C189.283 67.7492 188.326 66.85 187.057 66.6432V66.0415C187.057 65.7338 186.808 65.4849 186.5 65.4849C186.192 65.4849 185.943 65.7338 185.943 66.0415V66.6432C184.674 66.85 183.717 67.7492 183.717 68.8247C183.717 69.9002 184.674 70.7994 185.943 71.0062V73.207C185.303 73.0499 184.83 72.638 184.83 72.1646C184.83 71.8569 184.581 71.6079 184.273 71.6079C183.966 71.6079 183.717 71.8569 183.717 72.1646C183.717 73.2401 184.674 74.1393 185.943 74.3461V74.9532C185.943 75.2608 186.192 75.5098 186.5 75.5098C186.808 75.5098 187.057 75.2608 187.057 74.9532V74.3461C188.326 74.1393 189.283 73.2401 189.283 72.1646C189.283 71.089 188.326 70.1898 187.057 69.983ZM184.83 68.8247C184.83 68.3512 185.303 67.9393 185.943 67.7822V69.8672C185.303 69.7101 184.83 69.2981 184.83 68.8247ZM187.057 73.207V71.1221C187.697 71.2792 188.17 71.6911 188.17 72.1646C188.17 72.638 187.697 73.0499 187.057 73.207Z" fill="#FFE14D"/>
</svg>
