<svg width="635" height="635" viewBox="0 0 635 635" fill="none" xmlns="http://www.w3.org/2000/svg">
<g clip-path="url(#clip0)">
<path d="M61.051 592.689C62.3782 588.518 66.1703 586.622 69.2039 586.622C72.4271 586.622 76.2191 588.518 77.3567 592.689C78.6839 596.861 83.6135 596.671 83.6135 596.671C83.6135 596.671 88.7326 596.861 89.8702 592.689C91.0078 588.518 94.9894 586.622 98.023 586.622C101.246 586.622 105.038 588.518 106.176 592.689C107.313 596.861 112.433 596.671 112.433 596.671C112.433 596.671 117.552 596.861 118.689 592.689C120.017 588.518 123.809 586.622 126.842 586.622C130.065 586.622 133.857 588.518 134.995 592.689C136.322 596.861 141.252 596.671 141.252 596.671C141.252 596.671 146.371 596.861 147.509 592.689C148.836 588.518 152.628 586.622 155.661 586.622C158.695 586.622 162.677 588.518 163.814 592.689C165.141 596.861 170.071 596.671 170.071 596.671C170.071 596.671 175.19 596.861 176.328 592.689C177.655 588.518 181.447 586.622 184.481 586.622C187.704 586.622 191.496 588.518 192.633 592.689C193.961 596.861 198.89 596.671 198.89 596.671C198.89 596.671 204.009 596.861 205.147 592.689C206.474 588.518 210.266 586.622 213.3 586.622C216.523 586.622 220.315 588.518 221.453 592.689C222.78 596.861 227.709 596.671 227.709 596.671C227.709 596.671 232.829 596.861 233.966 592.689C235.293 588.518 239.085 586.622 242.119 586.622C245.342 586.622 249.134 588.518 250.272 592.689C251.599 596.861 256.529 596.671 256.529 596.671C256.529 596.671 261.648 596.861 262.785 592.689C264.113 588.518 267.905 586.622 270.938 586.622C274.161 586.622 277.953 588.518 279.091 592.689C280.418 596.861 285.348 596.671 285.348 596.671C285.348 596.671 290.467 596.861 291.605 592.689C292.932 588.518 296.724 586.622 299.757 586.622C302.981 586.622 306.773 588.518 307.91 592.689C309.237 596.861 314.167 596.671 314.167 596.671C314.167 596.671 319.286 596.861 320.424 592.689C321.751 588.518 325.543 586.622 328.577 586.622C331.8 586.622 335.592 588.518 336.729 592.689C337.867 596.861 342.986 596.671 342.986 596.671C342.986 596.671 348.105 596.861 349.243 592.689C350.57 588.518 354.362 586.622 357.396 586.622C360.619 586.622 364.411 588.518 365.549 592.689C366.876 596.861 371.805 596.671 371.805 596.671C371.805 596.671 376.925 596.861 378.062 592.689C379.389 588.518 383.181 586.622 386.215 586.622C389.438 586.622 393.23 588.518 394.368 592.689C395.695 596.861 400.625 596.671 400.625 596.671C400.625 596.671 405.744 596.861 406.881 592.689C408.209 588.518 412.001 586.622 415.034 586.622C418.068 586.622 422.049 588.518 423.187 592.689C424.514 596.861 429.444 596.671 429.444 596.671C429.444 596.671 434.563 596.861 435.701 592.689C437.028 588.518 440.82 586.622 443.853 586.622C447.077 586.622 450.869 588.518 452.006 592.689C453.333 596.861 458.263 596.671 458.263 596.671C458.263 596.671 463.382 596.861 464.52 592.689C465.847 588.518 469.639 586.622 472.673 586.622C475.706 586.622 479.688 588.518 480.825 592.689C482.153 596.861 487.082 596.671 487.082 596.671C487.082 596.671 492.201 596.861 493.339 592.689C494.666 588.518 498.458 586.622 501.492 586.622C504.715 586.622 508.507 588.518 509.645 592.689C510.972 596.861 515.901 596.671 515.901 596.671C515.901 596.671 521.021 596.861 522.158 592.689C523.485 588.518 527.277 586.622 530.311 586.622C533.534 586.622 537.326 588.518 538.464 592.689C539.791 596.861 544.721 596.671 544.721 596.671C544.721 596.671 549.84 596.861 550.978 592.689C552.305 588.518 556.097 586.622 559.13 586.622C562.353 586.622 566.145 588.518 567.283 592.689C568.61 596.861 573.54 596.671 573.54 596.671H574.678C535.62 448.593 535.051 96.127 535.051 96.127L349.243 159.453L312.65 145.613L276.057 159.453L90.2495 96.127C90.2495 96.127 89.6806 448.593 50.623 596.671C57.4486 596.292 60.2926 595.533 61.051 592.689Z" fill="#3A007D" fill-opacity="0.4"/>
<path d="M616.2 74.3236H18.96C8.532 74.3236 0 65.7916 0 55.3636V38.6788C0 28.2508 8.532 19.7188 18.96 19.7188H616.2C626.628 19.7188 635.16 28.2508 635.16 38.6788V55.3636C635.16 65.7916 626.628 74.3236 616.2 74.3236Z" fill="#FFC740"/>
<path d="M616.2 82.8548H18.96C8.532 82.8548 0 74.3228 0 63.8948V47.21C0 36.782 8.532 28.25 18.96 28.25H616.2C626.628 28.25 635.16 36.782 635.16 47.21V63.8948C635.16 74.3228 626.628 82.8548 616.2 82.8548Z" fill="#FAAF40"/>
<path d="M608.616 62.9467H26.5438C22.5622 62.9467 19.339 59.7235 19.339 55.7419C19.339 51.7603 22.5622 48.5371 26.5438 48.5371H608.616C612.597 48.5371 615.821 51.7603 615.821 55.7419C615.821 59.7235 612.597 62.9467 608.616 62.9467Z" fill="#480081"/>
<path d="M67.3078 0C50.2438 0 44.5558 20.856 44.5558 34.128C44.5558 47.4 37.5406 56.3112 32.611 56.3112H160.212V0H67.3078Z" fill="#E6E7E8"/>
<path d="M567.852 0C584.916 0 590.604 20.856 590.604 34.128C590.604 47.4 597.619 56.3112 602.549 56.3112H474.948V0H567.852Z" fill="#E6E7E8"/>
<path d="M45.6936 23.5105C57.4488 19.9081 85.32 13.8409 105.797 29.9569C122.292 42.8497 119.448 19.7185 115.087 0.189728H67.308C54.4152 0.00012786 47.9688 11.9449 45.6936 23.5105Z" fill="#CFD0D2"/>
<path d="M590.224 23.5105C578.469 19.9081 550.598 13.8409 530.121 29.9569C513.626 42.8497 516.47 19.7185 520.831 0.189728H568.61C581.313 0.00012786 587.759 11.9449 590.224 23.5105Z" fill="#CFD0D2"/>
<path d="M317.58 0H94.4207H65.6014C67.8766 0 94.4207 1.7064 94.4207 68.256V634.591C94.4207 634.591 98.7815 634.781 99.7295 631.368C100.867 627.955 104.09 626.438 106.745 626.438C109.399 626.438 112.622 627.955 113.76 631.368C114.897 634.781 119.069 634.591 119.069 634.591C119.069 634.591 123.429 634.781 124.377 631.368C125.515 627.955 128.738 626.438 131.393 626.438C134.047 626.438 137.27 627.955 138.408 631.368C139.545 634.781 143.717 634.591 143.717 634.591C143.717 634.591 148.077 634.781 149.025 631.368C150.163 627.955 153.386 626.438 156.041 626.438C158.695 626.438 161.918 627.955 163.056 631.368C164.193 634.781 168.365 634.591 168.365 634.591C168.365 634.591 172.725 634.781 173.673 631.368C174.811 627.955 178.034 626.438 180.689 626.438C183.343 626.438 186.566 627.955 187.704 631.368C188.841 634.781 193.013 634.591 193.013 634.591C193.013 634.591 197.373 634.781 198.321 631.368C199.459 627.955 202.682 626.438 205.337 626.438C207.991 626.438 211.214 627.955 212.352 631.368C213.489 634.781 217.661 634.591 217.661 634.591C217.661 634.591 222.021 634.781 222.969 631.368C224.107 627.955 227.33 626.438 229.985 626.438C232.639 626.438 235.862 627.955 237 631.368C238.137 634.781 242.309 634.591 242.309 634.591C242.309 634.591 246.669 634.781 247.617 631.368C248.755 627.955 251.978 626.438 254.633 626.438C257.287 626.438 260.51 627.955 261.648 631.368C262.785 634.781 266.957 634.591 266.957 634.591C266.957 634.591 271.317 634.781 272.265 631.368C273.403 627.955 276.626 626.438 279.281 626.438C281.935 626.438 285.158 627.955 286.296 631.368C287.433 634.781 291.605 634.591 291.605 634.591C291.605 634.591 295.965 634.781 296.913 631.368C298.051 627.955 301.274 626.438 303.929 626.438C306.583 626.438 309.806 627.955 310.944 631.368C312.081 634.781 316.253 634.591 316.253 634.591C316.253 634.591 320.613 634.781 321.561 631.368C322.699 627.955 325.922 626.438 328.577 626.438C331.231 626.438 334.454 627.955 335.592 631.368C336.729 634.781 340.901 634.591 340.901 634.591C340.901 634.591 345.261 634.781 346.209 631.368C347.347 627.955 350.57 626.438 353.225 626.438C355.879 626.438 359.102 627.955 360.24 631.368C361.377 634.781 365.549 634.591 365.549 634.591C365.549 634.591 369.909 634.781 370.857 631.368C371.995 627.955 375.218 626.438 377.873 626.438C380.527 626.438 383.75 627.955 384.888 631.368C386.025 634.781 390.197 634.591 390.197 634.591C390.197 634.591 394.557 634.781 395.505 631.368C396.643 627.955 399.866 626.438 402.521 626.438C405.175 626.438 408.398 627.955 409.536 631.368C410.673 634.781 414.845 634.591 414.845 634.591C414.845 634.591 419.205 634.781 420.153 631.368C421.101 627.955 424.514 626.438 427.169 626.438C429.823 626.438 433.046 627.955 434.184 631.368C435.321 634.781 439.493 634.591 439.493 634.591C439.493 634.591 443.853 634.781 444.801 631.368C445.939 627.955 449.162 626.438 451.817 626.438C454.471 626.438 457.694 627.955 458.832 631.368C459.969 634.781 464.141 634.591 464.141 634.591C464.141 634.591 468.501 634.781 469.449 631.368C470.587 627.955 473.81 626.438 476.465 626.438C479.119 626.438 482.342 627.955 483.48 631.368C484.617 634.781 488.789 634.591 488.789 634.591C488.789 634.591 493.149 634.781 494.097 631.368C495.045 627.955 498.458 626.438 501.113 626.438C503.767 626.438 506.99 627.955 508.128 631.368C509.265 634.781 513.437 634.591 513.437 634.591C513.437 634.591 517.797 634.781 518.745 631.368C519.883 627.955 523.106 626.438 525.761 626.438C528.415 626.438 531.638 627.955 532.776 631.368C533.913 634.781 538.085 634.591 538.085 634.591V68.256C538.085 1.7064 564.818 0 566.904 0H538.085H317.58Z" fill="white"/>
<path d="M142.58 117.391H492.58" stroke="black"/>
<path d="M142.58 112.391H492.58" stroke="black" stroke-width="3"/>
<path d="M402.105 76.2621H341.396C337.87 76.2621 334.985 73.3307 334.985 69.7479V50.2701C334.985 46.6873 337.87 43.7559 341.396 43.7559H402.105C405.631 43.7559 408.516 46.6873 408.516 50.2701V69.6827C408.516 73.3307 405.631 76.2621 402.105 76.2621Z" fill="#FFB600"/>
<path d="M226.644 91.0493V43.6904H258.313V52.0939H236.645V63.9499H255.557V72.3533H236.645V91.1144H226.644V91.0493Z" fill="#4C4C4C"/>
<path d="M264.531 91.0493V43.6904H274.532V91.0493H264.531Z" fill="#4C4C4C"/>
<path d="M284.148 91.0493V43.6904H295.88L316.522 77.1087V43.6904H326.523V91.0493H314.791L294.149 57.631V91.0493H284.148Z" fill="#4C4C4C"/>
<path d="M341.908 70.3339V49.6836H349.409C355.435 49.6836 358.384 52.0287 358.384 56.7842C358.384 59.1945 357.615 61.0184 356.076 62.2562C354.537 63.4939 352.294 64.1453 349.345 64.1453H346.204V70.2687H341.908V70.3339ZM346.204 60.5625H349.729C352.486 60.4322 353.832 59.1945 353.832 56.7842C353.832 55.5465 353.448 54.6345 352.678 54.1133C351.909 53.5922 350.819 53.3316 349.281 53.3316H346.139V60.5625H346.204Z" fill="#4C4C4C"/>
<path d="M361.653 70.3339V49.6836H369.154C372.103 49.6836 374.282 50.335 375.821 51.5727C377.359 52.8105 378.129 54.5693 378.129 56.7842C378.129 59.7807 376.718 61.8002 373.962 62.8425L378.129 70.3339H373.192L369.474 63.6242H369.154H366.012V70.3339H361.653ZM366.012 59.9762H369.154C372.167 59.9762 373.641 58.9339 373.641 56.7842C373.641 54.5042 372.167 53.3316 369.154 53.3316H366.012V59.9762Z" fill="#4C4C4C"/>
<path d="M380.565 59.8458C380.565 56.5235 381.526 53.983 383.45 52.0938C385.373 50.2047 387.873 49.2275 391.078 49.2275C394.284 49.2275 396.784 50.2047 398.707 52.0938C400.63 53.983 401.592 56.5887 401.592 59.8458C401.592 63.1681 400.63 65.839 398.707 67.7933C396.784 69.8127 394.22 70.7898 391.078 70.7898C387.937 70.7898 385.373 69.8127 383.45 67.7933C381.526 65.7738 380.565 63.1681 380.565 59.8458ZM385.245 59.8458C385.245 62.1258 385.822 63.8847 386.976 65.1875C388.129 66.4904 389.476 67.1418 391.143 67.1418C392.809 67.1418 394.156 66.4904 395.309 65.1875C396.463 63.8847 397.04 62.1258 397.04 59.8458C397.04 57.5658 396.463 55.8721 395.374 54.6995C394.22 53.527 392.873 52.9407 391.207 52.9407C389.54 52.9407 388.194 53.527 387.04 54.6995C385.758 55.8721 385.245 57.5658 385.245 59.8458Z" fill="#4C4C4C"/>
<path d="M341.08 92.3906C344.67 92.3906 347.58 89.4805 347.58 85.8906C347.58 82.3008 344.67 79.3906 341.08 79.3906C337.49 79.3906 334.58 82.3008 334.58 85.8906C334.58 89.4805 337.49 92.3906 341.08 92.3906Z" fill="#FFE14D"/>
<path d="M341.08 90.8418C338.35 90.8418 336.129 88.6206 336.129 85.8906C336.129 83.1606 338.35 80.9395 341.08 80.9395C343.81 80.9395 346.031 83.1606 346.031 85.8906C346.031 88.6206 343.81 90.8418 341.08 90.8418Z" fill="#FFBB33"/>
<path d="M346.031 85.8906C346.031 83.1606 343.81 80.9395 341.08 80.9395V90.8418C343.81 90.8418 346.031 88.6206 346.031 85.8906Z" fill="#FFBB33"/>
<path d="M341.461 88.9373V88.5219C342.329 88.3804 342.984 87.7652 342.984 87.0293C342.984 86.2934 342.329 85.6782 341.461 85.5367V84.0309C341.899 84.1383 342.223 84.4202 342.223 84.7441C342.223 84.9547 342.393 85.125 342.603 85.125C342.814 85.125 342.984 84.9547 342.984 84.7441C342.984 84.0083 342.329 83.393 341.461 83.2515V82.8398C341.461 82.6293 341.29 82.459 341.08 82.459V89.3182C341.29 89.3182 341.461 89.1478 341.461 88.9373ZM341.461 86.316C341.899 86.4235 342.223 86.7053 342.223 87.0293C342.223 87.3532 341.899 87.6351 341.461 87.7425V86.316Z" fill="#FFBB33"/>
<path d="M341.461 85.5367V84.0309C341.899 84.1383 342.223 84.4202 342.223 84.7441C342.223 84.9547 342.393 85.125 342.603 85.125C342.814 85.125 342.984 84.9547 342.984 84.7441C342.984 84.0083 342.329 83.393 341.461 83.2515V82.8398C341.461 82.6293 341.29 82.459 341.08 82.459C340.869 82.459 340.699 82.6293 340.699 82.8398V83.2515C339.831 83.393 339.176 84.0083 339.176 84.7441C339.176 85.48 339.831 86.0953 340.699 86.2368V87.7426C340.261 87.6351 339.937 87.3533 339.937 87.0293C339.937 86.8188 339.767 86.6484 339.557 86.6484C339.346 86.6484 339.176 86.8188 339.176 87.0293C339.176 87.7652 339.831 88.3804 340.699 88.5219V88.9373C340.699 89.1478 340.869 89.3182 341.08 89.3182C341.29 89.3182 341.461 89.1478 341.461 88.9373V88.5219C342.329 88.3804 342.984 87.7652 342.984 87.0293C342.984 86.2934 342.329 85.6781 341.461 85.5367V85.5367ZM339.937 84.7441C339.937 84.4202 340.261 84.1383 340.699 84.0309V85.4574C340.261 85.3499 339.937 85.0681 339.937 84.7441V84.7441ZM341.461 87.7426V86.316C341.899 86.4235 342.223 86.7053 342.223 87.0293C342.223 87.3533 341.899 87.6351 341.461 87.7426Z" fill="#FFE14D"/>
</g>
<defs>
<clipPath id="clip0">
<rect width="635" height="635" fill="white"/>
</clipPath>
</defs>
</svg>
